<?xml version="1.0" standalone="no"?>
<!DOCTYPE svg PUBLIC "-//W3C//DTD SVG 20010904//EN"
 "http://www.w3.org/TR/2001/REC-SVG-20010904/DTD/svg10.dtd">
<svg version="1.0" xmlns="http://www.w3.org/2000/svg"
 width="300.000000pt" height="300.000000pt" viewBox="0 0 300.000000 300.000000"
 preserveAspectRatio="xMidYMid meet">
<metadata>
Created by potrace 1.10, written by Peter Selinger 2001-2011
</metadata>
<g transform="translate(0.000000,300.000000) scale(0.100000,-0.100000)"
fill="#ffffff" stroke="none">
<path d="M970 1505 l0 -165 33 0 32 0 -3 122 -3 123 68 -122 68 -123 38 0 38
0 -2 165 -1 165 -33 0 -32 0 5 -103 c6 -144 3 -154 -32 -87 -16 30 -46 85 -68
123 -36 62 -41 67 -73 67 l-35 0 0 -165z"/>
<path d="M1270 1640 c0 -29 1 -30 50 -30 l50 0 0 -135 0 -135 30 0 30 0 0 135
0 135 50 0 c49 0 50 1 50 30 l0 30 -130 0 -130 0 0 -30z"/>
<path d="M1560 1506 l0 -166 30 0 30 0 0 65 0 65 39 0 c39 0 39 0 62 -65 22
-62 24 -65 56 -65 18 0 33 2 33 4 0 2 -13 34 -30 70 l-29 66 24 25 c34 33 34
93 1 131 -22 26 -29 28 -120 32 l-96 4 0 -166z m164 98 c10 -4 16 -18 16 -35
0 -33 -27 -49 -86 -49 -34 0 -34 0 -34 45 l0 45 44 0 c24 0 51 -3 60 -6z"/>
<path d="M1850 1505 l0 -165 100 0 100 0 0 30 0 30 -70 0 -70 0 0 135 0 135
-30 0 -30 0 0 -165z"/>
</g>
</svg>
